<mxfile host="app.diagrams.net" modified="2021-06-14T04:35:11.029Z" agent="5.0 (Windows NT 10.0; Win64; x64) AppleWebKit/537.36 (KHTML, like Gecko) Chrome/91.0.4472.101 Safari/537.36" etag="nYB4cO_PsXJZmedN5Euu" version="14.7.7" type="github">
  <diagram name="Page-1" id="e7e014a7-5840-1c2e-5031-d8a46d1fe8dd">
    <mxGraphModel dx="1730" dy="927" grid="1" gridSize="10" guides="1" tooltips="1" connect="1" arrows="1" fold="1" page="1" pageScale="1" pageWidth="1169" pageHeight="826" background="none" math="0" shadow="0">
      <root>
        <mxCell id="0" />
        <mxCell id="1" parent="0" />
        <mxCell id="2" value="Pemohon" style="swimlane;whiteSpace=wrap;startSize=92;fontSize=15;" parent="1" vertex="1">
          <mxGeometry x="164.5" y="128" width="175.5" height="1162" as="geometry" />
        </mxCell>
        <mxCell id="EJGItbRI0ggfpn9-f8-u-73" style="edgeStyle=orthogonalEdgeStyle;rounded=0;orthogonalLoop=1;jettySize=auto;html=1;exitX=0.5;exitY=1;exitDx=0;exitDy=0;entryX=0.567;entryY=-0.015;entryDx=0;entryDy=0;entryPerimeter=0;fontSize=15;fontColor=#000000;strokeColor=#FF0303;" edge="1" parent="2" source="5" target="7">
          <mxGeometry relative="1" as="geometry" />
        </mxCell>
        <mxCell id="5" value="" style="ellipse;shape=startState;fillColor=#000000;strokeColor=#ff0000;" parent="2" vertex="1">
          <mxGeometry x="72.75" y="102" width="30" height="30" as="geometry" />
        </mxCell>
        <mxCell id="7" value="Menyerahkan&#xa;berkas&#xa;permohonan&#xa;data" style="rounded=1;whiteSpace=wrap;html=1;fontFamily=Helvetica;fontSize=20;fontColor=#000000;align=center;strokeColor=#000000;fillColor=#ffffff;" parent="2" vertex="1">
          <mxGeometry x="10" y="162" width="140" height="128" as="geometry" />
        </mxCell>
        <mxCell id="EJGItbRI0ggfpn9-f8-u-124" style="edgeStyle=orthogonalEdgeStyle;rounded=0;orthogonalLoop=1;jettySize=auto;html=1;entryX=0.5;entryY=0;entryDx=0;entryDy=0;fontSize=18;fontColor=#000000;strokeColor=#FF0303;" edge="1" parent="2" source="EJGItbRI0ggfpn9-f8-u-118" target="EJGItbRI0ggfpn9-f8-u-116">
          <mxGeometry relative="1" as="geometry" />
        </mxCell>
        <mxCell id="EJGItbRI0ggfpn9-f8-u-118" value="Menerima surat jawaban" style="rounded=1;whiteSpace=wrap;html=1;fontFamily=Helvetica;fontSize=20;fontColor=#000000;align=center;strokeColor=#000000;fillColor=#ffffff;" vertex="1" parent="2">
          <mxGeometry x="20" y="992" width="140" height="88" as="geometry" />
        </mxCell>
        <mxCell id="EJGItbRI0ggfpn9-f8-u-116" value="" style="ellipse;html=1;shape=endState;fillColor=#000000;strokeColor=#ff0000;fontSize=18;fontColor=#000000;" vertex="1" parent="2">
          <mxGeometry x="75.75" y="1112" width="30" height="30" as="geometry" />
        </mxCell>
        <mxCell id="EJGItbRI0ggfpn9-f8-u-47" value="Staf&#xa;Sekretariat" style="swimlane;whiteSpace=wrap;startSize=92;fontSize=15;" vertex="1" parent="1">
          <mxGeometry x="340" y="128" width="175.5" height="1162" as="geometry" />
        </mxCell>
        <mxCell id="EJGItbRI0ggfpn9-f8-u-71" value="Menerima dan &#xa;mencatat surat&#xa; permohonan&#xa;data dan &#xa;memberi&#xa; lembar &#xa;disposisi" style="rounded=1;whiteSpace=wrap;html=1;fontFamily=Helvetica;fontSize=20;fontColor=#000000;align=center;strokeColor=#000000;fillColor=#ffffff;" vertex="1" parent="EJGItbRI0ggfpn9-f8-u-47">
          <mxGeometry x="17.75" y="160" width="140" height="190" as="geometry" />
        </mxCell>
        <mxCell id="EJGItbRI0ggfpn9-f8-u-51" value="Staf IT &amp; Pengolahan&#xa;data" style="swimlane;whiteSpace=wrap;startSize=92;fontSize=15;" vertex="1" parent="1">
          <mxGeometry x="515.5" y="130" width="175.5" height="1160" as="geometry" />
        </mxCell>
        <mxCell id="EJGItbRI0ggfpn9-f8-u-97" value="&#xa;&#xa;Mengolah data sesuai permintaan dan&#xa;mengetik surat jawaban &#xa;&#xa;" style="rounded=1;whiteSpace=wrap;html=1;fontSize=18;fontColor=#000000;" vertex="1" parent="EJGItbRI0ggfpn9-f8-u-51">
          <mxGeometry x="24.5" y="712" width="135.5" height="148" as="geometry" />
        </mxCell>
        <mxCell id="EJGItbRI0ggfpn9-f8-u-55" value="Kasi Sistim&#xa;Informasi&#xa;dan&#xa;pengolahan&#xa;data" style="swimlane;whiteSpace=wrap;startSize=92;fontSize=15;" vertex="1" parent="1">
          <mxGeometry x="691" y="128" width="175.5" height="1162" as="geometry" />
        </mxCell>
        <mxCell id="EJGItbRI0ggfpn9-f8-u-93" style="edgeStyle=orthogonalEdgeStyle;rounded=0;orthogonalLoop=1;jettySize=auto;html=1;exitX=0.5;exitY=1;exitDx=0;exitDy=0;entryX=0.5;entryY=0;entryDx=0;entryDy=0;fontSize=18;fontColor=#000000;strokeColor=#FF0303;" edge="1" parent="EJGItbRI0ggfpn9-f8-u-55" source="EJGItbRI0ggfpn9-f8-u-88" target="EJGItbRI0ggfpn9-f8-u-92">
          <mxGeometry relative="1" as="geometry" />
        </mxCell>
        <mxCell id="EJGItbRI0ggfpn9-f8-u-88" value="Menindak lanjuti disposis pimpinan dan&lt;br/&gt;membuat konsep surat jabawaban dan&lt;br/&gt;koordinasi dengan PPID Kabupaten&amp;nbsp;" style="rounded=1;whiteSpace=wrap;html=1;fontSize=18;fontColor=#000000;" vertex="1" parent="EJGItbRI0ggfpn9-f8-u-55">
          <mxGeometry x="17.75" y="295" width="140" height="220" as="geometry" />
        </mxCell>
        <mxCell id="EJGItbRI0ggfpn9-f8-u-92" value="ya/tidak" style="rhombus;whiteSpace=wrap;html=1;fontSize=18;fontColor=#000000;" vertex="1" parent="EJGItbRI0ggfpn9-f8-u-55">
          <mxGeometry x="40" y="601" width="96" height="60" as="geometry" />
        </mxCell>
        <mxCell id="EJGItbRI0ggfpn9-f8-u-101" value="&#xa;&#xa;Mengoreksi surat jawaban dan data olahan &#xa;&#xa;" style="rounded=1;whiteSpace=wrap;html=1;fontSize=18;fontColor=#000000;" vertex="1" parent="EJGItbRI0ggfpn9-f8-u-55">
          <mxGeometry x="21.75" y="740" width="138.25" height="96" as="geometry" />
        </mxCell>
        <mxCell id="EJGItbRI0ggfpn9-f8-u-112" value="&#xa;&#xa;Mengirim surat jawaban ke pemohon&#xa;dengan tembusan PPID &#xa;&#xa;" style="rounded=1;whiteSpace=wrap;html=1;fontSize=18;fontColor=#000000;" vertex="1" parent="EJGItbRI0ggfpn9-f8-u-55">
          <mxGeometry x="28" y="972" width="120" height="138" as="geometry" />
        </mxCell>
        <mxCell id="EJGItbRI0ggfpn9-f8-u-99" value="Ya" style="text;html=1;resizable=0;autosize=1;align=center;verticalAlign=middle;points=[];fillColor=none;strokeColor=none;rounded=0;fontSize=18;fontColor=#000000;" vertex="1" parent="EJGItbRI0ggfpn9-f8-u-55">
          <mxGeometry x="-9.25" y="638" width="40" height="30" as="geometry" />
        </mxCell>
        <mxCell id="EJGItbRI0ggfpn9-f8-u-59" value="Kabid&#xa;Informasi&#xa;dan&#xa;Pengaduan" style="swimlane;whiteSpace=wrap;startSize=92;fontSize=15;" vertex="1" parent="1">
          <mxGeometry x="866.5" y="128" width="175.5" height="1162" as="geometry" />
        </mxCell>
        <mxCell id="EJGItbRI0ggfpn9-f8-u-82" value="Menerima disposisi pimpinan dan&lt;br style=&quot;font-size: 18px;&quot;&gt;meneruskan ke Kasi" style="rounded=1;whiteSpace=wrap;html=1;fontFamily=Helvetica;fontSize=18;fontColor=#000000;align=center;strokeColor=#000000;fillColor=#ffffff;" vertex="1" parent="EJGItbRI0ggfpn9-f8-u-59">
          <mxGeometry x="19.5" y="350" width="136.5" height="110" as="geometry" />
        </mxCell>
        <mxCell id="EJGItbRI0ggfpn9-f8-u-96" value="Tidak" style="text;html=1;resizable=0;autosize=1;align=center;verticalAlign=middle;points=[];fillColor=none;strokeColor=none;rounded=0;fontSize=18;fontColor=#000000;" vertex="1" parent="EJGItbRI0ggfpn9-f8-u-59">
          <mxGeometry x="13.5" y="601" width="60" height="30" as="geometry" />
        </mxCell>
        <mxCell id="EJGItbRI0ggfpn9-f8-u-63" value="Sekretaris" style="swimlane;whiteSpace=wrap;startSize=92;fontSize=15;" vertex="1" parent="1">
          <mxGeometry x="1042" y="128" width="175.5" height="1162" as="geometry" />
        </mxCell>
        <mxCell id="EJGItbRI0ggfpn9-f8-u-103" value="&#xa;&#xa;Mengoreksi surat jawaban dan data olahan &#xa;&#xa;" style="rounded=1;whiteSpace=wrap;html=1;fontSize=18;fontColor=#000000;" vertex="1" parent="EJGItbRI0ggfpn9-f8-u-63">
          <mxGeometry x="18" y="740" width="138.25" height="96" as="geometry" />
        </mxCell>
        <mxCell id="EJGItbRI0ggfpn9-f8-u-67" value="Kepala" style="swimlane;whiteSpace=wrap;startSize=92;fontSize=15;" vertex="1" parent="1">
          <mxGeometry x="1215.5" y="128" width="177.5" height="1162" as="geometry" />
        </mxCell>
        <mxCell id="EJGItbRI0ggfpn9-f8-u-78" value="&lt;font style=&quot;font-size: 18px&quot;&gt;Memberi disposisi&lt;/font&gt;" style="rounded=1;whiteSpace=wrap;html=1;fontFamily=Helvetica;fontSize=15;fontColor=#000000;align=center;strokeColor=#000000;fillColor=#ffffff;" vertex="1" parent="EJGItbRI0ggfpn9-f8-u-67">
          <mxGeometry x="10" y="218.12" width="157.5" height="73.75" as="geometry" />
        </mxCell>
        <mxCell id="EJGItbRI0ggfpn9-f8-u-113" value="Tidak" style="text;html=1;resizable=0;autosize=1;align=center;verticalAlign=middle;points=[];fillColor=none;strokeColor=none;rounded=0;fontSize=18;fontColor=#000000;" vertex="1" parent="EJGItbRI0ggfpn9-f8-u-67">
          <mxGeometry x="124.5" y="872" width="60" height="30" as="geometry" />
        </mxCell>
        <mxCell id="EJGItbRI0ggfpn9-f8-u-108" style="edgeStyle=orthogonalEdgeStyle;rounded=0;orthogonalLoop=1;jettySize=auto;html=1;fontSize=18;fontColor=#000000;strokeColor=#FF0303;" edge="1" parent="EJGItbRI0ggfpn9-f8-u-67" source="EJGItbRI0ggfpn9-f8-u-105" target="EJGItbRI0ggfpn9-f8-u-107">
          <mxGeometry relative="1" as="geometry" />
        </mxCell>
        <mxCell id="EJGItbRI0ggfpn9-f8-u-105" value="Persetujuan Atasan" style="rounded=1;whiteSpace=wrap;html=1;fontSize=18;fontColor=#000000;" vertex="1" parent="EJGItbRI0ggfpn9-f8-u-67">
          <mxGeometry x="34.5" y="758" width="120" height="60" as="geometry" />
        </mxCell>
        <mxCell id="EJGItbRI0ggfpn9-f8-u-107" value="ya/tidak" style="rhombus;whiteSpace=wrap;html=1;fontSize=18;fontColor=#000000;" vertex="1" parent="EJGItbRI0ggfpn9-f8-u-67">
          <mxGeometry x="36.5" y="882" width="117" height="50" as="geometry" />
        </mxCell>
        <mxCell id="EJGItbRI0ggfpn9-f8-u-75" value="PPID" style="swimlane;whiteSpace=wrap;startSize=92;fontSize=15;" vertex="1" parent="1">
          <mxGeometry x="1393" y="128" width="175.5" height="1162" as="geometry" />
        </mxCell>
        <mxCell id="EJGItbRI0ggfpn9-f8-u-94" value="Kembali ke PPID" style="rounded=1;whiteSpace=wrap;html=1;fontSize=18;fontColor=#000000;" vertex="1" parent="EJGItbRI0ggfpn9-f8-u-75">
          <mxGeometry x="27.75" y="601" width="120" height="60" as="geometry" />
        </mxCell>
        <mxCell id="EJGItbRI0ggfpn9-f8-u-110" value="Kembali ke PPID" style="rounded=1;whiteSpace=wrap;html=1;fontSize=18;fontColor=#000000;" vertex="1" parent="EJGItbRI0ggfpn9-f8-u-75">
          <mxGeometry x="27.75" y="877" width="120" height="60" as="geometry" />
        </mxCell>
        <mxCell id="EJGItbRI0ggfpn9-f8-u-77" style="edgeStyle=orthogonalEdgeStyle;rounded=0;orthogonalLoop=1;jettySize=auto;html=1;exitX=1;exitY=0.5;exitDx=0;exitDy=0;entryX=-0.03;entryY=0.345;entryDx=0;entryDy=0;entryPerimeter=0;fontSize=15;fontColor=#000000;strokeColor=#FF0303;" edge="1" parent="1" source="7" target="EJGItbRI0ggfpn9-f8-u-71">
          <mxGeometry relative="1" as="geometry" />
        </mxCell>
        <mxCell id="EJGItbRI0ggfpn9-f8-u-80" style="edgeStyle=orthogonalEdgeStyle;rounded=0;orthogonalLoop=1;jettySize=auto;html=1;exitX=1;exitY=0.5;exitDx=0;exitDy=0;entryX=0;entryY=0.5;entryDx=0;entryDy=0;fontSize=15;fontColor=#000000;strokeColor=#FF0303;" edge="1" parent="1" source="EJGItbRI0ggfpn9-f8-u-71" target="EJGItbRI0ggfpn9-f8-u-78">
          <mxGeometry relative="1" as="geometry" />
        </mxCell>
        <mxCell id="EJGItbRI0ggfpn9-f8-u-83" style="edgeStyle=orthogonalEdgeStyle;rounded=0;orthogonalLoop=1;jettySize=auto;html=1;exitX=0.5;exitY=1;exitDx=0;exitDy=0;entryX=1;entryY=0.5;entryDx=0;entryDy=0;fontSize=18;fontColor=#000000;strokeColor=#FF0303;" edge="1" parent="1" source="EJGItbRI0ggfpn9-f8-u-78" target="EJGItbRI0ggfpn9-f8-u-82">
          <mxGeometry relative="1" as="geometry" />
        </mxCell>
        <mxCell id="EJGItbRI0ggfpn9-f8-u-91" style="edgeStyle=orthogonalEdgeStyle;rounded=0;orthogonalLoop=1;jettySize=auto;html=1;exitX=0;exitY=0.5;exitDx=0;exitDy=0;fontSize=18;fontColor=#000000;strokeColor=#FF0303;" edge="1" parent="1" source="EJGItbRI0ggfpn9-f8-u-82">
          <mxGeometry relative="1" as="geometry">
            <mxPoint x="850" y="533.0588235294117" as="targetPoint" />
          </mxGeometry>
        </mxCell>
        <mxCell id="EJGItbRI0ggfpn9-f8-u-95" style="edgeStyle=orthogonalEdgeStyle;rounded=0;orthogonalLoop=1;jettySize=auto;html=1;exitX=1;exitY=0.5;exitDx=0;exitDy=0;entryX=0;entryY=0.5;entryDx=0;entryDy=0;fontSize=18;fontColor=#000000;strokeColor=#FF0303;" edge="1" parent="1" source="EJGItbRI0ggfpn9-f8-u-92" target="EJGItbRI0ggfpn9-f8-u-94">
          <mxGeometry relative="1" as="geometry">
            <Array as="points">
              <mxPoint x="1370" y="759" />
              <mxPoint x="1370" y="759" />
            </Array>
          </mxGeometry>
        </mxCell>
        <mxCell id="EJGItbRI0ggfpn9-f8-u-98" style="edgeStyle=orthogonalEdgeStyle;rounded=0;orthogonalLoop=1;jettySize=auto;html=1;entryX=0.5;entryY=0;entryDx=0;entryDy=0;fontSize=18;fontColor=#000000;strokeColor=#FF0303;" edge="1" parent="1" source="EJGItbRI0ggfpn9-f8-u-92" target="EJGItbRI0ggfpn9-f8-u-97">
          <mxGeometry relative="1" as="geometry" />
        </mxCell>
        <mxCell id="EJGItbRI0ggfpn9-f8-u-102" style="edgeStyle=orthogonalEdgeStyle;rounded=0;orthogonalLoop=1;jettySize=auto;html=1;fontSize=18;fontColor=#000000;strokeColor=#FF0303;" edge="1" parent="1" source="EJGItbRI0ggfpn9-f8-u-97" target="EJGItbRI0ggfpn9-f8-u-101">
          <mxGeometry relative="1" as="geometry" />
        </mxCell>
        <mxCell id="EJGItbRI0ggfpn9-f8-u-104" style="edgeStyle=orthogonalEdgeStyle;rounded=0;orthogonalLoop=1;jettySize=auto;html=1;fontSize=18;fontColor=#000000;strokeColor=#FF0303;" edge="1" parent="1" source="EJGItbRI0ggfpn9-f8-u-101" target="EJGItbRI0ggfpn9-f8-u-103">
          <mxGeometry relative="1" as="geometry" />
        </mxCell>
        <mxCell id="EJGItbRI0ggfpn9-f8-u-106" style="edgeStyle=orthogonalEdgeStyle;rounded=0;orthogonalLoop=1;jettySize=auto;html=1;fontSize=18;fontColor=#000000;strokeColor=#FF0303;" edge="1" parent="1" source="EJGItbRI0ggfpn9-f8-u-103" target="EJGItbRI0ggfpn9-f8-u-105">
          <mxGeometry relative="1" as="geometry" />
        </mxCell>
        <mxCell id="EJGItbRI0ggfpn9-f8-u-111" style="edgeStyle=orthogonalEdgeStyle;rounded=0;orthogonalLoop=1;jettySize=auto;html=1;entryX=0;entryY=0.5;entryDx=0;entryDy=0;fontSize=18;fontColor=#000000;strokeColor=#FF0303;" edge="1" parent="1" source="EJGItbRI0ggfpn9-f8-u-107" target="EJGItbRI0ggfpn9-f8-u-110">
          <mxGeometry relative="1" as="geometry" />
        </mxCell>
        <mxCell id="EJGItbRI0ggfpn9-f8-u-114" style="edgeStyle=orthogonalEdgeStyle;rounded=0;orthogonalLoop=1;jettySize=auto;html=1;exitX=0.5;exitY=1;exitDx=0;exitDy=0;entryX=1;entryY=0.5;entryDx=0;entryDy=0;fontSize=18;fontColor=#000000;strokeColor=#FF0303;" edge="1" parent="1" source="EJGItbRI0ggfpn9-f8-u-107" target="EJGItbRI0ggfpn9-f8-u-112">
          <mxGeometry relative="1" as="geometry" />
        </mxCell>
        <mxCell id="EJGItbRI0ggfpn9-f8-u-115" value="Ya" style="text;html=1;resizable=0;autosize=1;align=center;verticalAlign=middle;points=[];fillColor=none;strokeColor=none;rounded=0;fontSize=18;fontColor=#000000;" vertex="1" parent="1">
          <mxGeometry x="1272" y="1062" width="40" height="30" as="geometry" />
        </mxCell>
        <mxCell id="EJGItbRI0ggfpn9-f8-u-122" style="edgeStyle=orthogonalEdgeStyle;rounded=0;orthogonalLoop=1;jettySize=auto;html=1;fontSize=18;fontColor=#000000;strokeColor=#FF0303;" edge="1" parent="1" source="EJGItbRI0ggfpn9-f8-u-112">
          <mxGeometry relative="1" as="geometry">
            <mxPoint x="330" y="1169" as="targetPoint" />
          </mxGeometry>
        </mxCell>
      </root>
    </mxGraphModel>
  </diagram>
</mxfile>
